<svg width="360" height="800" viewBox="0 0 360 800" fill="none" xmlns="http://www.w3.org/2000/svg">
<g clip-path="url(#clip0_394_1271)">
<rect width="360" height="800" fill="white"/>
<circle cx="350" cy="668" r="164" fill="url(#paint0_linear_394_1271)" fill-opacity="0.2"/>
<g clip-path="url(#clip1_394_1271)">
<path d="M278.899 358.35C281.166 358.35 283.004 356.481 283.004 354.175C283.004 351.869 281.166 350 278.899 350C276.632 350 274.794 351.869 274.794 354.175C274.794 356.481 276.632 358.35 278.899 358.35Z" fill="#A671EA"/>
<path d="M99.5503 358.374V372.588C99.5503 373.448 100.596 373.851 101.156 373.201L111.594 361.095C113.087 359.366 115.237 358.374 117.501 358.374H123.823L107.584 377.058C107.286 377.4 107.278 377.91 107.56 378.265L124.633 399.514H117.924C115.805 399.514 113.8 398.55 112.456 396.885L101.18 382.902C100.635 382.225 99.5542 382.619 99.5542 383.491V399.514H94.9364C92.7625 399.514 91 397.721 91 395.51V362.378C91 360.167 92.7625 358.374 94.9364 358.374H99.5542H99.5503Z" fill="black"/>
<path d="M156.849 358.374V361.72C156.849 363.832 155.165 365.545 153.089 365.545H140.085C139.58 365.545 139.168 365.963 139.168 366.477V373.253C139.168 373.767 139.58 374.185 140.085 374.185H155.693V377.364C155.693 379.472 154.013 381.181 151.941 381.181H140.085C139.58 381.181 139.168 381.599 139.168 382.113V391.415C139.168 391.929 139.58 392.347 140.085 392.347H156.849V395.295C156.849 397.626 154.992 399.514 152.701 399.514H135.694C133.144 399.514 131.076 397.411 131.076 394.817V363.071C131.076 360.477 133.144 358.374 135.694 358.374H156.849V358.374Z" fill="black"/>
<path d="M192.883 358.374V361.72C192.883 363.832 191.199 365.545 189.123 365.545H176.119C175.614 365.545 175.203 365.963 175.203 366.477V373.253C175.203 373.767 175.614 374.185 176.119 374.185H191.727V377.364C191.727 379.472 190.047 381.181 187.975 381.181H176.119C175.614 381.181 175.203 381.599 175.203 382.113V391.415C175.203 391.929 175.614 392.347 176.119 392.347H192.883V395.295C192.883 397.626 191.026 399.514 188.735 399.514H171.728C169.179 399.514 167.111 397.411 167.111 394.817V363.071C167.111 360.477 169.179 358.374 171.728 358.374H192.883V358.374Z" fill="black"/>
<path d="M225.96 358.374V362.087C225.96 364.126 224.335 365.78 222.329 365.78H211.507C211.002 365.78 210.591 366.198 210.591 366.712V374.018C210.591 374.532 211.002 374.95 211.507 374.95H225.384V377.842C225.384 380.141 223.551 382.005 221.291 382.005H211.507C211.002 382.005 210.591 382.424 210.591 382.938V399.518H206.795C204.422 399.518 202.499 397.562 202.499 395.148V362.744C202.499 360.33 204.422 358.374 206.795 358.374H225.96V358.374Z" fill="black"/>
<path d="M240.437 374.56H236.265C235.145 374.56 234.24 373.636 234.24 372.5V369.15C234.24 362.872 239.246 357.78 245.419 357.78H248.713C249.833 357.78 250.738 358.705 250.738 359.84V364.083C250.738 365.222 249.829 366.142 248.713 366.142H245.419C243.789 366.142 242.465 367.485 242.465 369.146V372.496C242.465 373.636 241.557 374.556 240.44 374.556L240.437 374.56Z" fill="black"/>
<path d="M273.337 374.56H269.166C268.046 374.56 267.141 373.636 267.141 372.5V369.15C267.141 367.493 265.821 366.146 264.188 366.146H260.894C259.774 366.146 258.869 365.222 258.869 364.087V359.844C258.869 358.704 259.778 357.784 260.894 357.784H264.188C270.361 357.784 275.366 362.875 275.366 369.154V372.504C275.366 373.644 274.458 374.564 273.341 374.564L273.337 374.56Z" fill="#A671EA"/>
<path d="M264.188 400H260.894C259.774 400 258.869 399.076 258.869 397.94V393.698C258.869 392.558 259.778 391.638 260.894 391.638H264.188C265.817 391.638 267.141 390.296 267.141 388.634V385.284C267.141 384.145 268.05 383.224 269.166 383.224H273.337C274.458 383.224 275.362 384.149 275.362 385.284V388.634C275.362 394.913 270.357 400.004 264.184 400.004L264.188 400Z" fill="black"/>
<path d="M248.709 400H245.415C239.242 400 234.236 394.909 234.236 388.63V385.28C234.236 384.141 235.145 383.22 236.261 383.22H240.433C241.553 383.22 242.458 384.145 242.458 385.28V388.63C242.458 390.288 243.778 391.634 245.411 391.634H248.705C249.825 391.634 250.73 392.558 250.73 393.694V397.936C250.73 399.076 249.821 399.996 248.705 399.996L248.709 400Z" fill="black"/>
</g>
<circle cx="99" cy="159" r="119" fill="url(#paint1_linear_394_1271)" fill-opacity="0.2"/>
<circle cx="83" cy="680" r="53" fill="url(#paint2_linear_394_1271)" fill-opacity="0.2"/>
<circle cx="19" cy="491" r="64" fill="url(#paint3_linear_394_1271)" fill-opacity="0.2"/>
<path d="M128.862 338.028C128.862 338.472 128.706 338.862 128.394 339.198C128.094 339.546 127.692 339.834 127.188 340.062C126.684 340.302 126.102 340.482 125.442 340.602C124.782 340.722 124.092 340.782 123.372 340.782C122.592 340.782 121.866 340.722 121.194 340.602C120.534 340.482 119.958 340.302 119.466 340.062C118.974 339.834 118.59 339.546 118.314 339.198C118.038 338.862 117.9 338.472 117.9 338.028C117.9 337.596 118.038 337.212 118.314 336.876C118.59 336.54 118.974 336.258 119.466 336.03C119.958 335.79 120.534 335.61 121.194 335.49C121.866 335.37 122.592 335.31 123.372 335.31C124.092 335.31 124.782 335.37 125.442 335.49C126.102 335.61 126.684 335.784 127.188 336.012C127.692 336.24 128.094 336.528 128.394 336.876C128.706 337.212 128.862 337.596 128.862 338.028ZM122.31 331.386C122.31 331.746 122.232 332.1 122.076 332.448C121.932 332.784 121.71 333.084 121.41 333.348C121.122 333.612 120.762 333.828 120.33 333.996C119.91 334.152 119.43 334.23 118.89 334.23C118.338 334.23 117.846 334.152 117.414 333.996C116.994 333.828 116.64 333.612 116.352 333.348C116.064 333.084 115.842 332.784 115.686 332.448C115.542 332.1 115.47 331.746 115.47 331.386C115.47 331.014 115.542 330.66 115.686 330.324C115.842 329.988 116.064 329.688 116.352 329.424C116.64 329.16 116.994 328.95 117.414 328.794C117.846 328.638 118.338 328.56 118.89 328.56C119.43 328.56 119.91 328.644 120.33 328.812C120.762 328.968 121.122 329.178 121.41 329.442C121.71 329.694 121.932 329.994 122.076 330.342C122.232 330.678 122.31 331.026 122.31 331.386ZM125.334 328.92H127.62V324.384C127.62 324.216 127.704 324.132 127.872 324.132H128.556C128.724 324.132 128.808 324.216 128.808 324.384V334.536C128.808 334.704 128.724 334.788 128.556 334.788H127.872C127.704 334.788 127.62 334.704 127.62 334.536V330H125.334V333.978C125.334 334.146 125.25 334.23 125.082 334.23H124.398C124.23 334.23 124.146 334.146 124.146 333.978V324.69C124.146 324.522 124.23 324.438 124.398 324.438H125.082C125.25 324.438 125.334 324.522 125.334 324.69V328.92ZM127.602 338.082C127.602 337.782 127.476 337.524 127.224 337.308C126.972 337.08 126.642 336.894 126.234 336.75C125.838 336.606 125.388 336.498 124.884 336.426C124.38 336.354 123.87 336.318 123.354 336.318C122.79 336.318 122.25 336.354 121.734 336.426C121.23 336.498 120.786 336.606 120.402 336.75C120.018 336.894 119.712 337.08 119.484 337.308C119.268 337.524 119.16 337.782 119.16 338.082C119.16 338.37 119.268 338.622 119.484 338.838C119.712 339.042 120.018 339.216 120.402 339.36C120.786 339.504 121.23 339.606 121.734 339.666C122.25 339.738 122.79 339.774 123.354 339.774C123.87 339.774 124.38 339.738 124.884 339.666C125.388 339.606 125.838 339.504 126.234 339.36C126.642 339.216 126.972 339.042 127.224 338.838C127.476 338.622 127.602 338.37 127.602 338.082ZM121.158 331.386C121.158 330.894 120.966 330.474 120.582 330.126C120.21 329.766 119.646 329.586 118.89 329.586C118.134 329.586 117.564 329.76 117.18 330.108C116.808 330.456 116.622 330.882 116.622 331.386C116.622 331.866 116.808 332.292 117.18 332.664C117.564 333.024 118.134 333.204 118.89 333.204C119.646 333.204 120.21 333.024 120.582 332.664C120.966 332.292 121.158 331.866 121.158 331.386ZM122.868 327.516C122.868 327.672 122.778 327.75 122.598 327.75H115.056C114.996 327.75 114.936 327.726 114.876 327.678C114.828 327.63 114.804 327.57 114.804 327.498V326.922C114.804 326.85 114.828 326.79 114.876 326.742C114.936 326.694 114.996 326.67 115.056 326.67H122.598C122.778 326.67 122.868 326.748 122.868 326.904V327.516ZM121.068 325.356C121.068 325.524 120.978 325.608 120.798 325.608H116.964C116.904 325.608 116.844 325.59 116.784 325.554C116.736 325.506 116.712 325.446 116.712 325.374V324.762C116.712 324.69 116.736 324.63 116.784 324.582C116.832 324.534 116.886 324.51 116.946 324.51H120.798C120.978 324.51 121.068 324.594 121.068 324.762V325.356ZM138.23 330.828V332.808H145.322C145.382 332.808 145.442 332.832 145.502 332.88C145.562 332.916 145.592 332.97 145.592 333.042V333.654C145.592 333.714 145.562 333.768 145.502 333.816C145.442 333.864 145.382 333.888 145.322 333.888H130.022C129.95 333.888 129.884 333.864 129.824 333.816C129.776 333.768 129.752 333.714 129.752 333.654V333.042C129.752 332.97 129.776 332.916 129.824 332.88C129.884 332.832 129.95 332.808 130.022 332.808H136.988V330.828H133.712C133.424 330.828 133.19 330.81 133.01 330.774C132.842 330.738 132.71 330.672 132.614 330.576C132.518 330.468 132.452 330.336 132.416 330.18C132.38 330.012 132.362 329.802 132.362 329.55V324.456C132.362 324.396 132.386 324.348 132.434 324.312C132.482 324.264 132.536 324.24 132.596 324.24H133.37C133.43 324.24 133.478 324.264 133.514 324.312C133.562 324.36 133.586 324.408 133.586 324.456V326.49H141.758V324.474C141.758 324.414 141.776 324.36 141.812 324.312C141.86 324.264 141.914 324.24 141.974 324.24H142.748C142.808 324.24 142.862 324.264 142.91 324.312C142.958 324.348 142.982 324.396 142.982 324.456V329.676C142.982 330.132 142.886 330.438 142.694 330.594C142.502 330.75 142.142 330.828 141.614 330.828H138.23ZM133.586 327.552V329.334C133.586 329.514 133.616 329.634 133.676 329.694C133.736 329.742 133.85 329.766 134.018 329.766H141.326C141.494 329.766 141.608 329.742 141.668 329.694C141.728 329.634 141.758 329.514 141.758 329.334V327.552H133.586ZM131.876 335.76C131.876 335.688 131.906 335.634 131.966 335.598C132.026 335.562 132.086 335.544 132.146 335.544H141.704C142.268 335.544 142.634 335.652 142.802 335.868C142.982 336.072 143.072 336.42 143.072 336.912V340.656C143.072 340.824 142.988 340.908 142.82 340.908H142.082C141.914 340.908 141.83 340.824 141.83 340.656V337.002C141.83 336.834 141.8 336.732 141.74 336.696C141.692 336.648 141.584 336.624 141.416 336.624H132.146C132.086 336.624 132.026 336.606 131.966 336.57C131.906 336.522 131.876 336.468 131.876 336.408V335.76ZM154.51 332.106C154.51 332.538 154.414 332.946 154.222 333.33C154.03 333.714 153.766 334.05 153.43 334.338C153.106 334.626 152.716 334.854 152.26 335.022C151.804 335.178 151.312 335.256 150.784 335.256C150.256 335.256 149.764 335.178 149.308 335.022C148.852 334.854 148.456 334.626 148.12 334.338C147.796 334.05 147.538 333.714 147.346 333.33C147.166 332.946 147.076 332.538 147.076 332.106C147.076 331.674 147.166 331.272 147.346 330.9C147.538 330.516 147.796 330.186 148.12 329.91C148.456 329.622 148.852 329.4 149.308 329.244C149.764 329.076 150.256 328.992 150.784 328.992C151.312 328.992 151.804 329.076 152.26 329.244C152.716 329.4 153.106 329.622 153.43 329.91C153.766 330.186 154.03 330.516 154.222 330.9C154.414 331.272 154.51 331.674 154.51 332.106ZM158.56 336.678C158.56 336.846 158.476 336.93 158.308 336.93H157.57C157.402 336.93 157.318 336.846 157.318 336.678V324.384C157.318 324.216 157.402 324.132 157.57 324.132H158.308C158.476 324.132 158.56 324.216 158.56 324.384V330.342H161.044C161.116 330.342 161.176 330.366 161.224 330.414C161.284 330.45 161.314 330.504 161.314 330.576V331.188C161.314 331.248 161.284 331.302 161.224 331.35C161.176 331.398 161.116 331.422 161.044 331.422H158.56V336.678ZM153.286 332.106C153.286 331.818 153.22 331.554 153.088 331.314C152.968 331.062 152.794 330.846 152.566 330.666C152.35 330.486 152.086 330.348 151.774 330.252C151.474 330.144 151.144 330.09 150.784 330.09C150.424 330.09 150.094 330.144 149.794 330.252C149.494 330.348 149.23 330.486 149.002 330.666C148.774 330.846 148.594 331.062 148.462 331.314C148.342 331.554 148.282 331.818 148.282 332.106C148.282 332.394 148.342 332.664 148.462 332.916C148.594 333.168 148.774 333.384 149.002 333.564C149.23 333.744 149.494 333.888 149.794 333.996C150.094 334.104 150.424 334.158 150.784 334.158C151.144 334.158 151.474 334.104 151.774 333.996C152.086 333.888 152.35 333.744 152.566 333.564C152.794 333.384 152.968 333.168 153.088 332.916C153.22 332.664 153.286 332.394 153.286 332.106ZM159.37 340.242C159.37 340.314 159.34 340.368 159.28 340.404C159.22 340.44 159.16 340.458 159.1 340.458H149.812C149.248 340.458 148.876 340.35 148.696 340.134C148.528 339.93 148.444 339.582 148.444 339.09V336.606C148.444 336.438 148.528 336.354 148.696 336.354H149.434C149.602 336.354 149.686 336.438 149.686 336.606V339.018C149.686 339.186 149.71 339.288 149.758 339.324C149.818 339.36 149.932 339.378 150.1 339.378H159.1C159.16 339.378 159.22 339.396 159.28 339.432C159.34 339.48 159.37 339.534 159.37 339.594V340.242ZM156.022 327.894C156.022 328.05 155.932 328.128 155.752 328.128H145.816C145.756 328.128 145.696 328.104 145.636 328.056C145.588 328.008 145.564 327.948 145.564 327.876V327.3C145.564 327.228 145.588 327.168 145.636 327.12C145.696 327.072 145.756 327.048 145.816 327.048H155.752C155.932 327.048 156.022 327.126 156.022 327.282V327.894ZM153.394 325.446C153.394 325.602 153.304 325.68 153.124 325.68H148.192C148.132 325.68 148.072 325.662 148.012 325.626C147.964 325.59 147.94 325.536 147.94 325.464V324.834C147.94 324.762 147.964 324.702 148.012 324.654C148.06 324.606 148.114 324.582 148.174 324.582H153.124C153.304 324.582 153.394 324.666 153.394 324.834V325.446ZM178.642 340.638C178.642 340.698 178.612 340.752 178.552 340.8C178.504 340.86 178.45 340.89 178.39 340.89H176.842C176.77 340.89 176.704 340.86 176.644 340.8C176.596 340.752 176.572 340.698 176.572 340.638V336.642C176.572 336.51 176.548 336.426 176.5 336.39C176.452 336.354 176.362 336.336 176.23 336.336H167.914C167.854 336.336 167.794 336.318 167.734 336.282C167.686 336.234 167.662 336.18 167.662 336.12V334.842C167.662 334.77 167.686 334.716 167.734 334.68C167.794 334.632 167.854 334.608 167.914 334.608H177.454C177.91 334.608 178.222 334.704 178.39 334.896C178.558 335.088 178.642 335.412 178.642 335.868V340.638ZM172.486 329.226V328.02C172.486 327.96 172.51 327.912 172.558 327.876C172.618 327.828 172.684 327.804 172.756 327.804H176.572V324.078C176.572 323.922 176.65 323.844 176.806 323.844H178.408C178.564 323.844 178.642 323.922 178.642 324.078V333.456C178.642 333.624 178.564 333.708 178.408 333.708H176.806C176.65 333.708 176.572 333.63 176.572 333.474V329.46H172.756C172.684 329.46 172.618 329.436 172.558 329.388C172.51 329.34 172.486 329.286 172.486 329.226ZM174.934 332.214C174.958 332.334 174.934 332.418 174.862 332.466C174.802 332.514 174.742 332.544 174.682 332.556C174.226 332.664 173.674 332.76 173.026 332.844C172.39 332.928 171.718 332.994 171.01 333.042C170.314 333.078 169.612 333.102 168.904 333.114C168.208 333.126 167.566 333.12 166.978 333.096C166.582 333.072 166.264 332.97 166.024 332.79C165.796 332.598 165.682 332.292 165.682 331.872V325.788C165.682 325.368 165.766 325.074 165.934 324.906C166.114 324.738 166.432 324.654 166.888 324.654H173.152C173.32 324.654 173.404 324.732 173.404 324.888V326.094C173.404 326.25 173.32 326.328 173.152 326.328H168.094C167.866 326.328 167.752 326.436 167.752 326.652V330.882C167.752 331.086 167.782 331.218 167.842 331.278C167.914 331.338 168.064 331.374 168.292 331.386C168.676 331.41 169.12 331.416 169.624 331.404C170.14 331.392 170.674 331.374 171.226 331.35C171.778 331.314 172.324 331.272 172.864 331.224C173.416 331.164 173.926 331.098 174.394 331.026C174.49 331.014 174.574 331.026 174.646 331.062C174.718 331.086 174.766 331.146 174.79 331.242L174.934 332.214ZM194.418 340.638C194.418 340.698 194.388 340.752 194.328 340.8C194.28 340.86 194.226 340.89 194.166 340.89H184.644C184.176 340.89 183.858 340.8 183.69 340.62C183.522 340.44 183.438 340.158 183.438 339.774V337.596C183.438 337.212 183.516 336.936 183.672 336.768C183.84 336.6 184.158 336.516 184.626 336.516H191.718C191.814 336.516 191.874 336.498 191.898 336.462C191.922 336.426 191.934 336.354 191.934 336.246V335.616C191.934 335.484 191.922 335.406 191.898 335.382C191.874 335.346 191.808 335.328 191.7 335.328H183.654C183.594 335.328 183.534 335.31 183.474 335.274C183.426 335.226 183.402 335.172 183.402 335.112V333.924C183.402 333.864 183.426 333.81 183.474 333.762C183.534 333.702 183.594 333.672 183.654 333.672H192.726C193.218 333.672 193.542 333.756 193.698 333.924C193.866 334.092 193.95 334.38 193.95 334.788V336.948C193.95 337.368 193.866 337.656 193.698 337.812C193.542 337.968 193.218 338.046 192.726 338.046H185.688C185.592 338.046 185.532 338.064 185.508 338.1C185.484 338.124 185.472 338.184 185.472 338.28V339.018C185.472 339.126 185.484 339.186 185.508 339.198C185.532 339.222 185.598 339.234 185.706 339.234H194.148C194.22 339.234 194.28 339.258 194.328 339.306C194.388 339.354 194.418 339.414 194.418 339.486V340.638ZM181.548 332.898C181.464 332.934 181.368 332.952 181.26 332.952C181.152 332.94 181.056 332.868 180.972 332.736L180.432 331.89C180.372 331.794 180.354 331.698 180.378 331.602C180.414 331.494 180.492 331.41 180.612 331.35C181.236 331.038 181.83 330.696 182.394 330.324C182.97 329.952 183.498 329.568 183.978 329.172C184.47 328.764 184.902 328.344 185.274 327.912C185.658 327.468 185.964 327.018 186.192 326.562C186.252 326.442 186.276 326.34 186.264 326.256C186.252 326.172 186.144 326.13 185.94 326.13H181.512C181.428 326.13 181.362 326.106 181.314 326.058C181.278 325.998 181.26 325.932 181.26 325.86V324.672C181.26 324.516 181.35 324.438 181.53 324.438H187.308C187.836 324.438 188.226 324.54 188.478 324.744C188.742 324.936 188.844 325.23 188.784 325.626C188.724 325.902 188.646 326.166 188.55 326.418C188.406 326.778 188.22 327.138 187.992 327.498C187.776 327.858 187.53 328.212 187.254 328.56C187.47 328.764 187.704 328.968 187.956 329.172C188.22 329.376 188.484 329.568 188.748 329.748C189.024 329.928 189.294 330.096 189.558 330.252C189.822 330.408 190.068 330.54 190.296 330.648C190.548 330.768 190.602 330.942 190.458 331.17L189.864 332.142C189.744 332.322 189.57 332.352 189.342 332.232C189.138 332.124 188.892 331.986 188.604 331.818C188.328 331.65 188.04 331.464 187.74 331.26C187.44 331.044 187.14 330.816 186.84 330.576C186.552 330.336 186.282 330.096 186.03 329.856C185.382 330.48 184.668 331.05 183.888 331.566C183.12 332.082 182.34 332.526 181.548 332.898ZM193.95 332.61C193.95 332.67 193.926 332.73 193.878 332.79C193.83 332.838 193.776 332.862 193.716 332.862H192.114C192.054 332.862 192 332.838 191.952 332.79C191.904 332.73 191.88 332.664 191.88 332.592V324.078C191.88 323.922 191.958 323.844 192.114 323.844H193.716C193.872 323.844 193.95 323.922 193.95 324.078V332.61ZM201.433 336.606C200.893 336.582 200.527 336.474 200.335 336.282C200.155 336.078 200.065 335.724 200.065 335.22V331.656C200.065 331.152 200.167 330.816 200.371 330.648C200.587 330.468 200.965 330.378 201.505 330.378H206.041C206.209 330.378 206.317 330.354 206.365 330.306C206.413 330.258 206.437 330.144 206.437 329.964V326.976C206.437 326.796 206.413 326.682 206.365 326.634C206.329 326.586 206.227 326.562 206.059 326.562H200.389C200.329 326.562 200.269 326.544 200.209 326.508C200.161 326.472 200.137 326.424 200.137 326.364V325.68C200.137 325.62 200.161 325.572 200.209 325.536C200.269 325.5 200.329 325.482 200.389 325.482H206.257C206.545 325.482 206.779 325.506 206.959 325.554C207.139 325.59 207.283 325.656 207.391 325.752C207.499 325.848 207.571 325.986 207.607 326.166C207.655 326.334 207.679 326.544 207.679 326.796V330.18C207.679 330.684 207.571 331.026 207.355 331.206C207.151 331.374 206.779 331.458 206.239 331.458H201.685C201.517 331.458 201.409 331.482 201.361 331.53C201.325 331.578 201.307 331.692 201.307 331.872V335.13C201.307 335.406 201.439 335.544 201.703 335.544C203.131 335.568 204.499 335.514 205.807 335.382C207.127 335.25 208.405 335.046 209.641 334.77C209.809 334.734 209.911 334.794 209.947 334.95L210.055 335.544C210.079 335.7 210.001 335.802 209.821 335.85C209.185 335.994 208.513 336.12 207.805 336.228C207.109 336.324 206.401 336.408 205.681 336.48C204.961 336.54 204.241 336.582 203.521 336.606C202.801 336.63 202.105 336.63 201.433 336.606ZM212.233 340.476C212.233 340.644 212.149 340.728 211.981 340.728H211.243C211.075 340.728 210.991 340.644 210.991 340.476V324.384C210.991 324.216 211.075 324.132 211.243 324.132H211.981C212.149 324.132 212.233 324.216 212.233 324.384V330.936H214.717C214.789 330.936 214.849 330.96 214.897 331.008C214.957 331.044 214.987 331.098 214.987 331.17V331.782C214.987 331.842 214.957 331.896 214.897 331.944C214.849 331.992 214.789 332.016 214.717 332.016H212.233V340.476ZM224.138 330.99C224.138 331.662 224.054 332.34 223.886 333.024C223.73 333.708 223.478 334.326 223.13 334.878C222.782 335.43 222.332 335.886 221.78 336.246C221.24 336.594 220.586 336.768 219.818 336.768C219.026 336.768 218.354 336.594 217.802 336.246C217.262 335.898 216.824 335.448 216.488 334.896C216.164 334.332 215.93 333.708 215.786 333.024C215.642 332.34 215.57 331.662 215.57 330.99C215.57 330.282 215.642 329.586 215.786 328.902C215.93 328.206 216.164 327.582 216.488 327.03C216.824 326.478 217.262 326.034 217.802 325.698C218.354 325.362 219.026 325.194 219.818 325.194C220.586 325.194 221.24 325.362 221.78 325.698C222.332 326.034 222.782 326.478 223.13 327.03C223.478 327.57 223.73 328.188 223.886 328.884C224.054 329.568 224.138 330.27 224.138 330.99ZM222.86 330.972C222.86 330.42 222.8 329.862 222.68 329.298C222.572 328.734 222.398 328.23 222.158 327.786C221.918 327.33 221.606 326.964 221.222 326.688C220.838 326.4 220.37 326.256 219.818 326.256C219.242 326.256 218.762 326.4 218.378 326.688C218.006 326.964 217.706 327.33 217.478 327.786C217.25 328.23 217.088 328.734 216.992 329.298C216.896 329.862 216.848 330.42 216.848 330.972C216.848 331.5 216.89 332.046 216.974 332.61C217.07 333.162 217.232 333.672 217.46 334.14C217.688 334.596 217.994 334.974 218.378 335.274C218.762 335.562 219.242 335.706 219.818 335.706C220.37 335.706 220.838 335.562 221.222 335.274C221.606 334.974 221.918 334.596 222.158 334.14C222.398 333.672 222.572 333.162 222.68 332.61C222.8 332.046 222.86 331.5 222.86 330.972ZM228.35 340.476C228.35 340.644 228.266 340.728 228.098 340.728H227.36C227.192 340.728 227.108 340.644 227.108 340.476V324.384C227.108 324.216 227.192 324.132 227.36 324.132H228.098C228.266 324.132 228.35 324.216 228.35 324.384V340.476ZM243.874 332.97C243.874 333.126 243.784 333.204 243.604 333.204H231.796C231.736 333.204 231.676 333.18 231.616 333.132C231.568 333.084 231.544 333.024 231.544 332.952V332.394C231.544 332.322 231.568 332.262 231.616 332.214C231.676 332.166 231.736 332.142 231.796 332.142H234.19V326.364H232.156C232.096 326.364 232.036 326.34 231.976 326.292C231.928 326.244 231.904 326.184 231.904 326.112V325.554C231.904 325.482 231.928 325.422 231.976 325.374C232.036 325.326 232.096 325.302 232.156 325.302H243.244C243.424 325.302 243.514 325.38 243.514 325.536V326.13C243.514 326.286 243.424 326.364 243.244 326.364H241.3V332.142H243.604C243.784 332.142 243.874 332.22 243.874 332.376V332.97ZM235.414 332.142H240.076V326.364H235.414V332.142ZM245.458 336.804C245.518 336.804 245.578 336.828 245.638 336.876C245.698 336.912 245.728 336.966 245.728 337.038V337.65C245.728 337.71 245.698 337.764 245.638 337.812C245.578 337.86 245.518 337.884 245.458 337.884H230.158C230.086 337.884 230.02 337.86 229.96 337.812C229.912 337.764 229.888 337.71 229.888 337.65V337.038C229.888 336.966 229.912 336.912 229.96 336.876C230.02 336.828 230.086 336.804 230.158 336.804H245.458Z" fill="black"/>
<circle cx="347" cy="268" r="53" fill="url(#paint4_linear_394_1271)" fill-opacity="0.2"/>
</g>
<defs>
<linearGradient id="paint0_linear_394_1271" x1="13.2766" y1="219.412" x2="608.905" y2="312.161" gradientUnits="userSpaceOnUse">
<stop stop-color="#EC4700" stop-opacity="0.661458"/>
<stop offset="0.671875" stop-color="#CDDCEF" stop-opacity="0.97"/>
<stop offset="1" stop-color="#0500EC" stop-opacity="0"/>
</linearGradient>
<linearGradient id="paint1_linear_394_1271" x1="-145.33" y1="-166.5" x2="286.864" y2="-99.2005" gradientUnits="userSpaceOnUse">
<stop stop-color="#EC4700" stop-opacity="0.661458"/>
<stop offset="0.671875" stop-color="#CDDCEF" stop-opacity="0.97"/>
<stop offset="1" stop-color="#0500EC" stop-opacity="0"/>
</linearGradient>
<linearGradient id="paint2_linear_394_1271" x1="-25.8192" y1="535.029" x2="166.67" y2="565.003" gradientUnits="userSpaceOnUse">
<stop stop-color="#EC4700" stop-opacity="0.661458"/>
<stop offset="0.671875" stop-color="#CDDCEF" stop-opacity="0.97"/>
<stop offset="1" stop-color="#0500EC" stop-opacity="0"/>
</linearGradient>
<linearGradient id="paint3_linear_394_1271" x1="-112.404" y1="315.941" x2="120.036" y2="352.136" gradientUnits="userSpaceOnUse">
<stop stop-color="#EC4700" stop-opacity="0.661458"/>
<stop offset="0.671875" stop-color="#CDDCEF" stop-opacity="0.97"/>
<stop offset="1" stop-color="#0500EC" stop-opacity="0"/>
</linearGradient>
<linearGradient id="paint4_linear_394_1271" x1="238.181" y1="123.029" x2="430.67" y2="153.003" gradientUnits="userSpaceOnUse">
<stop stop-color="#EC4700" stop-opacity="0.661458"/>
<stop offset="0.671875" stop-color="#CDDCEF" stop-opacity="0.97"/>
<stop offset="1" stop-color="#0500EC" stop-opacity="0"/>
</linearGradient>
<clipPath id="clip0_394_1271">
<rect width="360" height="800" fill="white"/>
</clipPath>
<clipPath id="clip1_394_1271">
<rect width="192" height="50" fill="white" transform="translate(91 350)"/>
</clipPath>
</defs>
</svg>
