<svg width="42" height="42" viewBox="0 0 42 42" fill="none" xmlns="http://www.w3.org/2000/svg">
<path d="M26.1269 18.1698H13.33C13.1495 18.1698 13.0019 18.3175 13.0019 18.4979V20.9589C13.0019 21.1394 13.1495 21.287 13.33 21.287H26.1269C26.3073 21.287 26.455 21.1394 26.455 20.9589V18.4979C26.455 18.3175 26.3073 18.1698 26.1269 18.1698ZM37.7753 35.5604L31.787 29.5722C36.795 23.4649 36.4464 14.4169 30.7206 8.69521C24.6503 2.6208 14.7901 2.6208 8.69521 8.69521C2.6208 14.7901 2.6208 24.6503 8.69521 30.7206C14.4169 36.4464 23.4649 36.795 29.5722 31.787L35.5604 37.7753C35.6917 37.8901 35.9009 37.8901 36.0116 37.7753L37.7753 36.0116C37.8901 35.9009 37.8901 35.6917 37.7753 35.5604ZM28.5468 28.5468C23.6741 33.4153 15.7827 33.4153 10.9101 28.5468C6.0415 23.6741 6.0415 15.7827 10.9101 10.9101C15.7827 6.0415 23.6741 6.0415 28.5468 10.9101C33.4153 15.7827 33.4153 23.6741 28.5468 28.5468Z" fill="black"/>
</svg>
