<svg width="42" height="42" viewBox="0 0 42 42" fill="none" xmlns="http://www.w3.org/2000/svg">
<path d="M42 39.885L2.115 0.000536111L0 2.11551L9.6 11.7304L7.5 20.6553C7.44707 20.8789 7.44621 21.1116 7.4975 21.3356C7.54878 21.5596 7.65083 21.7688 7.79578 21.947C7.94072 22.1253 8.12469 22.2679 8.33348 22.3638C8.54227 22.4598 8.77031 22.5064 9 22.5003H16.245L13.5 40.275C13.4505 40.6045 13.512 40.9411 13.675 41.2317C13.8379 41.5223 14.093 41.7504 14.4 41.88C14.5907 41.9574 14.7942 41.9981 15 42C15.2291 41.9995 15.455 41.9464 15.6604 41.845C15.8658 41.7436 16.0453 41.5965 16.185 41.415L26.205 28.3202L39.885 42L42 39.885ZM30.795 22.3053L35.685 15.9153C35.8426 15.7022 35.9409 15.4511 35.9699 15.1876C35.9988 14.9241 35.9575 14.6577 35.85 14.4154C35.7372 14.1489 35.5497 13.9207 35.3102 13.7584C35.0707 13.596 34.7893 13.5064 34.5 13.5004H27.375L30 1.83051C30.0497 1.60914 30.0485 1.37939 29.9965 1.15855C29.9446 0.937703 29.8432 0.731524 29.7 0.555529C29.5557 0.377493 29.3725 0.234898 29.1644 0.138691C28.9564 0.0424831 28.7291 -0.00477801 28.5 0.000536111H13.5C13.1553 -0.00867883 12.818 0.101139 12.5448 0.311502C12.2716 0.521866 12.0792 0.819931 12 1.15552L11.55 3.1055L30.795 22.3053Z" fill="#020202"/>
</svg>
