<svg width="135" height="42" viewBox="0 0 135 42" fill="none" xmlns="http://www.w3.org/2000/svg">
<path d="M8.55031 0.37384V14.5878C8.55031 15.4483 9.59608 15.8507 10.1562 15.2013L20.5944 3.09474C22.0867 1.36579 24.237 0.37384 26.5009 0.37384H32.8225L16.5836 19.0576C16.2859 19.4002 16.2781 19.9101 16.5601 20.2647L33.6333 41.514H26.9239C24.8049 41.514 22.7995 40.5499 21.4561 38.8847L10.1797 24.9018C9.63525 24.2245 8.55422 24.6189 8.55422 25.4914V41.514H3.93635C1.76255 41.514 0 39.7213 0 37.5103V4.3775C0 2.16653 1.76255 0.37384 3.93635 0.37384H8.55422H8.55031Z" fill="black"/>
<path d="M65.8487 0.37384V3.72019C65.8487 5.83157 64.1645 7.54458 62.0887 7.54458H49.085C48.5797 7.54458 48.1685 7.96288 48.1685 8.47678V15.2531C48.1685 15.767 48.5797 16.1853 49.085 16.1853H64.6933V19.3644C64.6933 21.4718 63.013 23.1808 60.941 23.1808H49.085C48.5797 23.1808 48.1685 23.5991 48.1685 24.113V33.415C48.1685 33.9289 48.5797 34.3472 49.085 34.3472H65.8487V37.2952C65.8487 39.6257 63.9922 41.514 61.7009 41.514H44.6943C42.1445 41.514 40.0764 39.4106 40.0764 36.8171V5.07068C40.0764 2.47726 42.1445 0.37384 44.6943 0.37384H65.8487V0.37384Z" fill="black"/>
<path d="M101.883 0.37384V3.72019C101.883 5.83157 100.199 7.54458 98.1228 7.54458H85.1192C84.6139 7.54458 84.2026 7.96288 84.2026 8.47678V15.2531C84.2026 15.767 84.6139 16.1853 85.1192 16.1853H100.727V19.3644C100.727 21.4718 99.0472 23.1808 96.9752 23.1808H85.1192C84.6139 23.1808 84.2026 23.5991 84.2026 24.113V33.415C84.2026 33.9289 84.6139 34.3472 85.1192 34.3472H101.883V37.2952C101.883 39.6257 100.026 41.514 97.7351 41.514H80.7285C78.1786 41.514 76.1106 39.4106 76.1106 36.8171V5.07068C76.1106 2.47726 78.1786 0.37384 80.7285 0.37384H101.883V0.37384Z" fill="black"/>
<path d="M134.96 0.37384V4.08669C134.96 6.12637 133.335 7.77963 131.329 7.77963H120.507C120.002 7.77963 119.591 8.19792 119.591 8.71182V16.018C119.591 16.5319 120.002 16.9502 120.507 16.9502H134.384V19.8424C134.384 22.141 132.551 24.0054 130.291 24.0054H120.507C120.002 24.0054 119.591 24.4237 119.591 24.9376V41.518H115.795C113.422 41.518 111.499 39.562 111.499 37.1478V4.74401C111.499 2.32986 113.422 0.37384 115.795 0.37384H134.96V0.37384Z" fill="black"/>
</svg>
