<svg width="18" height="20" viewBox="0 0 18 20" fill="none" xmlns="http://www.w3.org/2000/svg">
<path d="M16.5 5.3125H13.3125V4.9375C13.3125 2.55625 11.3813 0.625 9 0.625C6.61875 0.625 4.6875 2.55625 4.6875 4.9375V5.3125H1.5C1.08516 5.3125 0.75 5.64766 0.75 6.0625V18.625C0.75 19.0398 1.08516 19.375 1.5 19.375H16.5C16.9148 19.375 17.25 19.0398 17.25 18.625V6.0625C17.25 5.64766 16.9148 5.3125 16.5 5.3125ZM6.375 4.9375C6.375 3.48672 7.54922 2.3125 9 2.3125C10.4508 2.3125 11.625 3.48672 11.625 4.9375V5.3125H6.375V4.9375ZM15.5625 17.6875H2.4375V7H4.6875V9.0625C4.6875 9.16562 4.77187 9.25 4.875 9.25H6.1875C6.29063 9.25 6.375 9.16562 6.375 9.0625V7H11.625V9.0625C11.625 9.16562 11.7094 9.25 11.8125 9.25H13.125C13.2281 9.25 13.3125 9.16562 13.3125 9.0625V7H15.5625V17.6875Z" fill="#090A0B"/>
</svg>
