<svg width="360" height="800" viewBox="0 0 360 800" fill="none" xmlns="http://www.w3.org/2000/svg">
<g clip-path="url(#clip0_394_1271)">
<rect width="360" height="800" fill="white"/>
<circle cx="350" cy="668" r="164" fill="url(#paint0_linear_394_1271)" fill-opacity="0.2"/>
<g clip-path="url(#clip1_394_1271)">
<path d="M278.899 358.35C281.166 358.35 283.004 356.481 283.004 354.175C283.004 351.869 281.166 350 278.899 350C276.632 350 274.794 351.869 274.794 354.175C274.794 356.481 276.632 358.35 278.899 358.35Z" fill="#A671EA"/>
<path d="M99.5503 358.374V372.588C99.5503 373.448 100.596 373.851 101.156 373.201L111.594 361.095C113.087 359.366 115.237 358.374 117.501 358.374H123.823L107.584 377.058C107.286 377.4 107.278 377.91 107.56 378.265L124.633 399.514H117.924C115.805 399.514 113.8 398.55 112.456 396.885L101.18 382.902C100.635 382.225 99.5542 382.619 99.5542 383.491V399.514H94.9364C92.7625 399.514 91 397.721 91 395.51V362.378C91 360.167 92.7625 358.374 94.9364 358.374H99.5542H99.5503Z" fill="black"/>
<path d="M156.849 358.374V361.72C156.849 363.832 155.165 365.545 153.089 365.545H140.085C139.58 365.545 139.168 365.963 139.168 366.477V373.253C139.168 373.767 139.58 374.185 140.085 374.185H155.693V377.364C155.693 379.472 154.013 381.181 151.941 381.181H140.085C139.58 381.181 139.168 381.599 139.168 382.113V391.415C139.168 391.929 139.58 392.347 140.085 392.347H156.849V395.295C156.849 397.626 154.992 399.514 152.701 399.514H135.694C133.144 399.514 131.076 397.411 131.076 394.817V363.071C131.076 360.477 133.144 358.374 135.694 358.374H156.849Z" fill="black"/>
<path d="M192.883 358.374V361.72C192.883 363.832 191.199 365.545 189.123 365.545H176.119C175.614 365.545 175.203 365.963 175.203 366.477V373.253C175.203 373.767 175.614 374.185 176.119 374.185H191.727V377.364C191.727 379.472 190.047 381.181 187.975 381.181H176.119C175.614 381.181 175.203 381.599 175.203 382.113V391.415C175.203 391.929 175.614 392.347 176.119 392.347H192.883V395.295C192.883 397.626 191.026 399.514 188.735 399.514H171.728C169.179 399.514 167.111 397.411 167.111 394.817V363.071C167.111 360.477 169.179 358.374 171.728 358.374H192.883Z" fill="black"/>
<path d="M225.96 358.374V362.087C225.96 364.126 224.335 365.78 222.329 365.78H211.507C211.002 365.78 210.591 366.198 210.591 366.712V374.018C210.591 374.532 211.002 374.95 211.507 374.95H225.384V377.842C225.384 380.141 223.551 382.005 221.291 382.005H211.507C211.002 382.005 210.591 382.424 210.591 382.938V399.518H206.795C204.422 399.518 202.499 397.562 202.499 395.148V362.744C202.499 360.33 204.422 358.374 206.795 358.374H225.96Z" fill="black"/>
<path d="M240.437 374.56H236.265C235.145 374.56 234.24 373.636 234.24 372.5V369.15C234.24 362.872 239.246 357.78 245.419 357.78H248.713C249.833 357.78 250.738 358.705 250.738 359.84V364.083C250.738 365.222 249.829 366.142 248.713 366.142H245.419C243.789 366.142 242.465 367.485 242.465 369.146V372.496C242.465 373.636 241.557 374.556 240.44 374.556L240.437 374.56Z" fill="black"/>
<path d="M273.337 374.56H269.166C268.046 374.56 267.141 373.636 267.141 372.5V369.15C267.141 367.493 265.821 366.146 264.188 366.146H260.894C259.774 366.146 258.869 365.222 258.869 364.087V359.844C258.869 358.704 259.778 357.784 260.894 357.784H264.188C270.361 357.784 275.366 362.875 275.366 369.154V372.504C275.366 373.644 274.458 374.564 273.341 374.564L273.337 374.56Z" fill="#A671EA"/>
<path d="M264.188 400H260.894C259.774 400 258.869 399.076 258.869 397.94V393.698C258.869 392.558 259.778 391.638 260.894 391.638H264.188C265.817 391.638 267.141 390.296 267.141 388.634V385.284C267.141 384.145 268.05 383.224 269.166 383.224H273.337C274.458 383.224 275.362 384.149 275.362 385.284V388.634C275.362 394.913 270.357 400.004 264.184 400.004L264.188 400Z" fill="black"/>
<path d="M248.709 400H245.415C239.242 400 234.236 394.909 234.236 388.63V385.28C234.236 384.141 235.145 383.22 236.261 383.22H240.433C241.553 383.22 242.458 384.145 242.458 385.28V388.63C242.458 390.288 243.778 391.634 245.411 391.634H248.705C249.825 391.634 250.73 392.558 250.73 393.694V397.936C250.73 399.076 249.821 399.996 248.705 399.996L248.709 400Z" fill="black"/>
</g>
<circle cx="99" cy="159" r="119" fill="url(#paint1_linear_394_1271)" fill-opacity="0.2"/>
<circle cx="83" cy="680" r="53" fill="url(#paint2_linear_394_1271)" fill-opacity="0.2"/>
<circle cx="19" cy="491" r="64" fill="url(#paint3_linear_394_1271)" fill-opacity="0.2"/>
<path d="M137.074 328.992C137.074 327.516 136.096 326.778 134.14 326.778H132.304V331.476H133.798C134.89 331.476 135.706 331.26 136.246 330.828C136.798 330.396 137.074 329.784 137.074 328.992ZM137.488 335.256C137.488 334.368 137.164 333.708 136.516 333.276C135.868 332.844 134.842 332.628 133.438 332.628H132.268V337.848H133.654C136.21 337.848 137.488 336.984 137.488 335.256ZM138.82 335.184C138.82 337.716 137.086 338.982 133.618 338.982H131.44C131.188 338.982 131.038 338.964 130.99 338.928C130.954 338.88 130.936 338.73 130.936 338.478V326.166C130.936 325.914 130.954 325.77 130.99 325.734C131.038 325.686 131.188 325.662 131.44 325.662H134.14C136.984 325.662 138.406 326.754 138.406 328.938C138.406 330.606 137.614 331.62 136.03 331.98C136.942 332.244 137.632 332.646 138.1 333.186C138.58 333.714 138.82 334.38 138.82 335.184ZM146.406 333.438C146.406 332.946 146.358 332.508 146.262 332.124C146.166 331.74 146.016 331.392 145.812 331.08C145.368 330.372 144.726 330.018 143.886 330.018C143.022 330.018 142.32 330.378 141.78 331.098C141.564 331.422 141.384 331.794 141.24 332.214C141.096 332.634 141.018 333.042 141.006 333.438H146.406ZM141.006 334.464C140.994 335.064 141.06 335.598 141.204 336.066C141.36 336.522 141.582 336.906 141.87 337.218C142.158 337.53 142.5 337.77 142.896 337.938C143.304 338.106 143.754 338.19 144.246 338.19C144.726 338.19 145.176 338.148 145.596 338.064C146.016 337.968 146.406 337.818 146.766 337.614C146.922 337.542 147 337.584 147 337.74V338.55C147 338.658 146.934 338.742 146.802 338.802C146.406 338.958 145.992 339.072 145.56 339.144C145.128 339.228 144.66 339.27 144.156 339.27C142.68 339.27 141.564 338.844 140.808 337.992C140.052 337.128 139.674 335.832 139.674 334.104C139.674 332.58 140.052 331.35 140.808 330.414C141.6 329.466 142.602 328.992 143.814 328.992C144.486 328.992 145.068 329.112 145.56 329.352C146.052 329.592 146.472 329.952 146.82 330.432C147.432 331.284 147.738 332.424 147.738 333.852C147.738 334.008 147.732 334.128 147.72 334.212C147.72 334.296 147.702 334.356 147.666 334.392C147.63 334.428 147.564 334.452 147.468 334.464C147.384 334.464 147.258 334.464 147.09 334.464H141.006ZM160.071 338.73C160.071 338.898 159.987 338.982 159.819 338.982H159.099C158.931 338.982 158.847 338.898 158.847 338.73V333.186C158.847 332.61 158.793 332.124 158.685 331.728C158.589 331.32 158.445 330.996 158.253 330.756C158.061 330.504 157.827 330.324 157.551 330.216C157.275 330.108 156.969 330.054 156.633 330.054C155.649 330.054 154.893 330.288 154.365 330.756C153.849 331.224 153.591 331.872 153.591 332.7V338.73C153.591 338.898 153.507 338.982 153.339 338.982H152.619C152.451 338.982 152.367 338.898 152.367 338.73V324.906C152.367 324.738 152.451 324.654 152.619 324.654H153.339C153.507 324.654 153.591 324.738 153.591 324.906V330.126C153.927 329.742 154.341 329.466 154.833 329.298C155.337 329.118 155.961 329.028 156.705 329.028C157.869 329.028 158.721 329.37 159.261 330.054C159.801 330.738 160.071 331.776 160.071 333.168V338.73ZM167.387 333.906H167.045C166.373 333.882 165.773 333.912 165.245 333.996C164.729 334.068 164.297 334.17 163.949 334.302C163.445 334.482 163.067 334.752 162.815 335.112C162.563 335.46 162.437 335.88 162.437 336.372C162.437 336.672 162.485 336.954 162.581 337.218C162.677 337.47 162.827 337.668 163.031 337.812C163.391 338.1 163.871 338.244 164.471 338.244C164.891 338.244 165.275 338.16 165.623 337.992C165.983 337.824 166.295 337.584 166.559 337.272C166.823 336.96 167.027 336.576 167.171 336.12C167.315 335.652 167.387 335.118 167.387 334.518V333.906ZM162.257 330.756C162.197 330.792 162.137 330.804 162.077 330.792C162.029 330.768 162.005 330.726 162.005 330.666V329.982C162.005 329.814 162.089 329.688 162.257 329.604C162.677 329.376 163.121 329.22 163.589 329.136C164.069 329.04 164.591 328.992 165.155 328.992C166.355 328.992 167.231 329.28 167.783 329.856C168.335 330.42 168.611 331.278 168.611 332.43V336.948C168.611 337.308 168.617 337.632 168.629 337.92C168.641 338.196 168.659 338.466 168.683 338.73C168.683 338.898 168.599 338.982 168.431 338.982H167.783C167.615 338.982 167.531 338.898 167.531 338.73V337.344C167.279 337.956 166.853 338.43 166.253 338.766C165.665 339.102 165.023 339.27 164.327 339.27C163.115 339.27 162.227 338.916 161.663 338.208C161.471 337.968 161.327 337.692 161.231 337.38C161.135 337.056 161.087 336.738 161.087 336.426C161.087 335.694 161.255 335.064 161.591 334.536C161.939 334.008 162.467 333.612 163.175 333.348C164.039 333.036 165.365 332.88 167.153 332.88H167.387V332.34C167.387 331.584 167.213 331.008 166.865 330.612C166.529 330.216 165.959 330.018 165.155 330.018C164.615 330.018 164.105 330.078 163.625 330.198C163.145 330.306 162.689 330.492 162.257 330.756ZM176.944 333.978C176.944 333.486 176.896 333.012 176.8 332.556C176.704 332.088 176.542 331.674 176.314 331.314C176.086 330.954 175.792 330.666 175.432 330.45C175.072 330.222 174.622 330.108 174.082 330.108C173.59 330.108 173.164 330.21 172.804 330.414C172.444 330.618 172.144 330.9 171.904 331.26C171.676 331.608 171.502 332.016 171.382 332.484C171.262 332.952 171.202 333.45 171.202 333.978C171.202 335.37 171.46 336.426 171.976 337.146C172.504 337.854 173.206 338.208 174.082 338.208C174.538 338.208 174.94 338.112 175.288 337.92C175.648 337.716 175.948 337.428 176.188 337.056C176.44 336.684 176.626 336.24 176.746 335.724C176.878 335.208 176.944 334.626 176.944 333.978ZM169.996 329.496C169.996 329.328 170.08 329.244 170.248 329.244H170.932C171.1 329.244 171.184 329.328 171.184 329.496L171.094 330.846C171.334 330.318 171.736 329.892 172.3 329.568C172.876 329.244 173.542 329.082 174.298 329.082C175.006 329.082 175.606 329.208 176.098 329.46C176.602 329.712 177.01 330.06 177.322 330.504C177.646 330.936 177.88 331.452 178.024 332.052C178.18 332.652 178.258 333.294 178.258 333.978C178.258 334.722 178.168 335.412 177.988 336.048C177.82 336.684 177.568 337.236 177.232 337.704C176.908 338.172 176.5 338.544 176.008 338.82C175.516 339.084 174.946 339.216 174.298 339.216C173.566 339.216 172.936 339.078 172.408 338.802C171.88 338.514 171.478 338.118 171.202 337.614V341.484C171.202 341.652 171.118 341.736 170.95 341.736H170.266C170.194 341.736 170.128 341.712 170.068 341.664C170.02 341.616 169.996 341.556 169.996 341.484V329.496ZM186.42 333.978C186.42 333.486 186.372 333.012 186.276 332.556C186.18 332.088 186.018 331.674 185.79 331.314C185.562 330.954 185.268 330.666 184.908 330.45C184.548 330.222 184.098 330.108 183.558 330.108C183.066 330.108 182.64 330.21 182.28 330.414C181.92 330.618 181.62 330.9 181.38 331.26C181.152 331.608 180.978 332.016 180.858 332.484C180.738 332.952 180.678 333.45 180.678 333.978C180.678 335.37 180.936 336.426 181.452 337.146C181.98 337.854 182.682 338.208 183.558 338.208C184.014 338.208 184.416 338.112 184.764 337.92C185.124 337.716 185.424 337.428 185.664 337.056C185.916 336.684 186.102 336.24 186.222 335.724C186.354 335.208 186.42 334.626 186.42 333.978ZM179.472 329.496C179.472 329.328 179.556 329.244 179.724 329.244H180.408C180.576 329.244 180.66 329.328 180.66 329.496L180.57 330.846C180.81 330.318 181.212 329.892 181.776 329.568C182.352 329.244 183.018 329.082 183.774 329.082C184.482 329.082 185.082 329.208 185.574 329.46C186.078 329.712 186.486 330.06 186.798 330.504C187.122 330.936 187.356 331.452 187.5 332.052C187.656 332.652 187.734 333.294 187.734 333.978C187.734 334.722 187.644 335.412 187.464 336.048C187.296 336.684 187.044 337.236 186.708 337.704C186.384 338.172 185.976 338.544 185.484 338.82C184.992 339.084 184.422 339.216 183.774 339.216C183.042 339.216 182.412 339.078 181.884 338.802C181.356 338.514 180.954 338.118 180.678 337.614V341.484C180.678 341.652 180.594 341.736 180.426 341.736H179.742C179.67 341.736 179.604 341.712 179.544 341.664C179.496 341.616 179.472 341.556 179.472 341.484V329.496ZM188.336 341.646C188.192 341.61 188.132 341.52 188.156 341.376L188.21 340.764C188.21 340.62 188.282 340.578 188.426 340.638C188.618 340.71 188.84 340.746 189.092 340.746C189.344 340.746 189.572 340.704 189.776 340.62C189.992 340.548 190.154 340.446 190.262 340.314C190.394 340.146 190.538 339.87 190.694 339.486C190.862 339.102 191.024 338.664 191.18 338.172C190.64 336.708 190.106 335.262 189.578 333.834C189.05 332.406 188.516 330.96 187.976 329.496C187.952 329.436 187.952 329.382 187.976 329.334C188 329.274 188.048 329.244 188.12 329.244H188.966C189.134 329.244 189.254 329.328 189.326 329.496L191.756 336.48C192.2 335.256 192.62 334.092 193.016 332.988C193.424 331.872 193.85 330.708 194.294 329.496C194.354 329.328 194.474 329.244 194.654 329.244H195.428C195.5 329.244 195.548 329.274 195.572 329.334C195.596 329.382 195.596 329.436 195.572 329.496L191.828 339.54C191.696 339.888 191.546 340.2 191.378 340.476C191.222 340.752 191.06 340.974 190.892 341.142C190.676 341.346 190.436 341.496 190.172 341.592C189.908 341.7 189.632 341.754 189.344 341.754C189.164 341.754 189.002 341.748 188.858 341.736C188.714 341.724 188.54 341.694 188.336 341.646ZM209.866 338.784C209.83 338.916 209.734 338.982 209.578 338.982H208.516C208.372 338.982 208.276 338.916 208.228 338.784L205.672 330.504C205.228 331.896 204.784 333.276 204.34 334.644C203.896 336.012 203.452 337.386 203.008 338.766C202.972 338.91 202.864 338.982 202.684 338.982H201.694C201.61 338.982 201.538 338.97 201.478 338.946C201.43 338.922 201.394 338.862 201.37 338.766L198.364 329.496C198.34 329.436 198.346 329.382 198.382 329.334C198.418 329.274 198.472 329.244 198.544 329.244H199.372C199.516 329.244 199.624 329.328 199.696 329.496L202.252 337.704C202.696 336.324 203.128 334.974 203.548 333.654C203.98 332.322 204.418 330.966 204.862 329.586C204.922 329.358 205.06 329.244 205.276 329.244H206.122C206.35 329.244 206.494 329.358 206.554 329.586L209.056 337.704C209.512 336.288 209.95 334.92 210.37 333.6C210.802 332.28 211.246 330.912 211.702 329.496C211.726 329.424 211.768 329.364 211.828 329.316C211.888 329.268 211.954 329.244 212.026 329.244H212.746C212.818 329.244 212.872 329.274 212.908 329.334C212.944 329.382 212.95 329.436 212.926 329.496L209.866 338.784ZM214.774 339.522C214.774 339.69 214.69 339.774 214.522 339.774H213.73C213.562 339.774 213.478 339.69 213.478 339.522V330.288C213.478 330.12 213.562 330.036 213.73 330.036H214.522C214.69 330.036 214.774 330.12 214.774 330.288V339.522ZM213.244 326.634C213.244 326.394 213.328 326.19 213.496 326.022C213.664 325.842 213.868 325.752 214.108 325.752C214.348 325.752 214.552 325.842 214.72 326.022C214.9 326.19 214.99 326.394 214.99 326.634C214.99 326.874 214.9 327.078 214.72 327.246C214.552 327.414 214.348 327.498 214.108 327.498C213.868 327.498 213.664 327.414 213.496 327.246C213.328 327.078 213.244 326.874 213.244 326.634ZM220.951 339C220.447 339.18 219.949 339.27 219.457 339.27C218.485 339.27 217.843 338.952 217.531 338.316C217.327 337.884 217.225 337.122 217.225 336.03V330.288H215.533C215.365 330.288 215.281 330.204 215.281 330.036V329.496C215.281 329.328 215.365 329.244 215.533 329.244H217.225V326.814C217.225 326.634 217.303 326.544 217.459 326.544H218.215C218.371 326.544 218.449 326.634 218.449 326.814V329.244H220.447C220.615 329.244 220.699 329.328 220.699 329.496V330.036C220.699 330.204 220.615 330.288 220.447 330.288H218.449V336.642C218.449 337.71 218.881 338.244 219.745 338.244C220.081 338.244 220.459 338.172 220.879 338.028C220.939 338.004 220.993 338.004 221.041 338.028C221.101 338.052 221.131 338.1 221.131 338.172L221.167 338.64C221.191 338.808 221.119 338.928 220.951 339ZM229.218 338.73C229.218 338.898 229.134 338.982 228.966 338.982H228.246C228.078 338.982 227.994 338.898 227.994 338.73V333.186C227.994 332.61 227.94 332.124 227.832 331.728C227.736 331.32 227.592 330.996 227.4 330.756C227.208 330.504 226.974 330.324 226.698 330.216C226.422 330.108 226.116 330.054 225.78 330.054C224.796 330.054 224.04 330.288 223.512 330.756C222.996 331.224 222.738 331.872 222.738 332.7V338.73C222.738 338.898 222.654 338.982 222.486 338.982H221.766C221.598 338.982 221.514 338.898 221.514 338.73V324.906C221.514 324.738 221.598 324.654 221.766 324.654H222.486C222.654 324.654 222.738 324.738 222.738 324.906V330.126C223.074 329.742 223.488 329.466 223.98 329.298C224.484 329.118 225.108 329.028 225.852 329.028C227.016 329.028 227.868 329.37 228.408 330.054C228.948 330.738 229.218 331.776 229.218 333.168V338.73Z" fill="black"/>
<circle cx="347" cy="268" r="53" fill="url(#paint4_linear_394_1271)" fill-opacity="0.2"/>
</g>
<defs>
<linearGradient id="paint0_linear_394_1271" x1="13.2766" y1="219.412" x2="608.905" y2="312.161" gradientUnits="userSpaceOnUse">
<stop stop-color="#EC4700" stop-opacity="0.661458"/>
<stop offset="0.671875" stop-color="#CDDCEF" stop-opacity="0.97"/>
<stop offset="1" stop-color="#0500EC" stop-opacity="0"/>
</linearGradient>
<linearGradient id="paint1_linear_394_1271" x1="-145.33" y1="-166.5" x2="286.864" y2="-99.2005" gradientUnits="userSpaceOnUse">
<stop stop-color="#EC4700" stop-opacity="0.661458"/>
<stop offset="0.671875" stop-color="#CDDCEF" stop-opacity="0.97"/>
<stop offset="1" stop-color="#0500EC" stop-opacity="0"/>
</linearGradient>
<linearGradient id="paint2_linear_394_1271" x1="-25.8192" y1="535.029" x2="166.67" y2="565.003" gradientUnits="userSpaceOnUse">
<stop stop-color="#EC4700" stop-opacity="0.661458"/>
<stop offset="0.671875" stop-color="#CDDCEF" stop-opacity="0.97"/>
<stop offset="1" stop-color="#0500EC" stop-opacity="0"/>
</linearGradient>
<linearGradient id="paint3_linear_394_1271" x1="-112.404" y1="315.941" x2="120.036" y2="352.136" gradientUnits="userSpaceOnUse">
<stop stop-color="#EC4700" stop-opacity="0.661458"/>
<stop offset="0.671875" stop-color="#CDDCEF" stop-opacity="0.97"/>
<stop offset="1" stop-color="#0500EC" stop-opacity="0"/>
</linearGradient>
<linearGradient id="paint4_linear_394_1271" x1="238.181" y1="123.029" x2="430.67" y2="153.003" gradientUnits="userSpaceOnUse">
<stop stop-color="#EC4700" stop-opacity="0.661458"/>
<stop offset="0.671875" stop-color="#CDDCEF" stop-opacity="0.97"/>
<stop offset="1" stop-color="#0500EC" stop-opacity="0"/>
</linearGradient>
<clipPath id="clip0_394_1271">
<rect width="360" height="800" fill="white"/>
</clipPath>
<clipPath id="clip1_394_1271">
<rect width="192" height="50" fill="white" transform="translate(91 350)"/>
</clipPath>
</defs>
</svg>
