<svg width="22" height="18" viewBox="0 0 22 18" fill="none" xmlns="http://www.w3.org/2000/svg">
<path fill-rule="evenodd" clip-rule="evenodd" d="M16.0625 2.8125H19.25C20.2859 2.8125 21.125 3.65156 21.125 4.6875V15.375C21.125 16.4109 20.2859 17.25 19.25 17.25H2.75C1.71406 17.25 0.875 16.4109 0.875 15.375V4.6875C0.875 3.65156 1.71406 2.8125 2.75 2.8125H5.9375L6.69922 0.684376C6.80469 0.386719 7.08828 0.1875 7.40469 0.1875H14.5953C14.7501 0.187364 14.9011 0.235016 15.0278 0.323948C15.1545 0.41288 15.2507 0.538754 15.3031 0.684376L16.0625 2.8125ZM11 6C8.92813 6 7.25 7.67812 7.25 9.75C7.25 11.8219 8.92813 13.5 11 13.5C13.0719 13.5 14.75 11.8219 14.75 9.75C14.75 7.67812 13.0719 6 11 6Z" fill="black"/>
</svg>
