<svg width="53" height="50" viewBox="0 0 53 50" fill="none" xmlns="http://www.w3.org/2000/svg">
<g filter="url(#filter0_d_362_1253)">
<path d="M48.8992 8.34993C51.1662 8.34993 53.004 6.48074 53.004 4.17497C53.004 1.8692 51.1662 0 48.8992 0C46.6322 0 44.7944 1.8692 44.7944 4.17497C44.7944 6.48074 46.6322 8.34993 48.8992 8.34993Z" fill="#A671EA"/>
<path d="M10.4366 24.5598H6.26521C5.14501 24.5598 4.24023 23.6356 4.24023 22.5002V19.1499C4.24023 12.8715 9.24587 7.78027 15.4187 7.78027H18.7127C19.8329 7.78027 20.7377 8.7045 20.7377 9.83987V14.0826C20.7377 15.2219 19.829 16.1422 18.7127 16.1422H15.4187C13.7893 16.1422 12.4654 17.4847 12.4654 19.1459V22.4962C12.4654 23.6356 11.5568 24.5558 10.4405 24.5558L10.4366 24.5598Z" fill="black"/>
<path d="M43.3374 24.5598H39.1661C38.0459 24.5598 37.1411 23.6356 37.1411 22.5002V19.1499C37.1411 17.4926 35.8212 16.1461 34.1879 16.1461H30.8939C29.7737 16.1461 28.8689 15.2219 28.8689 14.0865V9.84384C28.8689 8.70449 29.7776 7.78424 30.8939 7.78424H34.1879C40.3607 7.78424 45.3663 12.8755 45.3663 19.1539V22.5042C45.3663 23.6435 44.4576 24.5638 43.3414 24.5638L43.3374 24.5598Z" fill="#A671EA"/>
<path d="M34.1879 50H30.8939C29.7737 50 28.8689 49.0758 28.8689 47.9404V43.6977C28.8689 42.5583 29.7776 41.6381 30.8939 41.6381H34.1879C35.8172 41.6381 37.1411 40.2956 37.1411 38.6344V35.284C37.1411 34.1447 38.0498 33.2244 39.1661 33.2244H43.3374C44.4576 33.2244 45.3624 34.1487 45.3624 35.284V38.6344C45.3624 44.9127 40.3568 50.004 34.184 50.004L34.1879 50Z" fill="black"/>
<path d="M18.7088 50H15.4148C9.24195 50 4.23633 44.9088 4.23633 38.6304V35.2801C4.23633 34.1407 5.14501 33.2205 6.26129 33.2205H10.4326C11.5528 33.2205 12.4576 34.1447 12.4576 35.2801V38.6304C12.4576 40.2876 13.7776 41.6341 15.4109 41.6341H18.7049C19.8251 41.6341 20.7298 42.5584 20.7298 43.6937V47.9364C20.7298 49.0758 19.8212 49.996 18.7049 49.996L18.7088 50Z" fill="black"/>
</g>
<defs>
<filter id="filter0_d_362_1253" x="0.236328" y="0" width="56.7676" height="58.004" filterUnits="userSpaceOnUse" color-interpolation-filters="sRGB">
<feFlood flood-opacity="0" result="BackgroundImageFix"/>
<feColorMatrix in="SourceAlpha" type="matrix" values="0 0 0 0 0 0 0 0 0 0 0 0 0 0 0 0 0 0 127 0" result="hardAlpha"/>
<feOffset dy="4"/>
<feGaussianBlur stdDeviation="2"/>
<feComposite in2="hardAlpha" operator="out"/>
<feColorMatrix type="matrix" values="0 0 0 0 0 0 0 0 0 0 0 0 0 0 0 0 0 0 0.25 0"/>
<feBlend mode="normal" in2="BackgroundImageFix" result="effect1_dropShadow_362_1253"/>
<feBlend mode="normal" in="SourceGraphic" in2="effect1_dropShadow_362_1253" result="shape"/>
</filter>
</defs>
</svg>
