<svg width="20" height="18" viewBox="0 0 20 18" fill="none" xmlns="http://www.w3.org/2000/svg">
<path d="M19.0843 3.48041L14.5233 6.29057L10.1499 0.456973C10.1323 0.433493 10.1095 0.414435 10.0832 0.401309C10.057 0.388182 10.0281 0.381348 9.99873 0.381348C9.96939 0.381348 9.94045 0.388182 9.91421 0.401309C9.88797 0.414435 9.86515 0.433493 9.84756 0.456973L5.47646 6.29057L0.913181 3.48041C0.779587 3.39838 0.606149 3.50854 0.627243 3.66557L2.41787 17.2734C2.44365 17.4585 2.60302 17.6015 2.79287 17.6015H17.2093C17.3968 17.6015 17.5585 17.4609 17.5819 17.2734L19.3726 3.66557C19.3913 3.50854 19.2202 3.39838 19.0843 3.48041ZM16.1311 15.9984H3.86631L2.60537 6.40307L5.88193 8.42104L9.9999 2.92729L14.1179 8.42104L17.3944 6.40307L16.1311 15.9984ZM9.9999 8.92963C8.54443 8.92963 7.36084 10.1132 7.36084 11.5687C7.36084 13.0242 8.54443 14.2078 9.9999 14.2078C11.4554 14.2078 12.639 13.0242 12.639 11.5687C12.639 10.1132 11.4554 8.92963 9.9999 8.92963ZM9.9999 12.7007C9.37646 12.7007 8.87021 12.1945 8.87021 11.5687C8.87021 10.9453 9.37646 10.4367 9.9999 10.4367C10.6233 10.4367 11.1296 10.9429 11.1296 11.5687C11.1296 12.1921 10.6233 12.7007 9.9999 12.7007Z" fill="#090A0B"/>
</svg>
