<svg width="24" height="24" viewBox="0 0 24 24" fill="none" xmlns="http://www.w3.org/2000/svg">
<path fill-rule="evenodd" clip-rule="evenodd" d="M5.65963 4.11873C5.23439 3.6935 4.54495 3.6935 4.11971 4.11873C3.69447 4.54397 3.69447 5.23342 4.11971 5.65865L10.4609 11.9998L4.11971 18.341C3.69447 18.7662 3.69447 19.4556 4.11971 19.8809L4.22272 19.7779L4.11971 19.8809C4.54495 20.3061 5.23439 20.3061 5.65963 19.8809L12.0008 13.5397L18.3419 19.8809C18.7672 20.3061 19.4566 20.3061 19.8819 19.8809C20.3071 19.4556 20.3071 18.7662 19.8819 18.341L13.5407 11.9998L19.8819 5.65865C20.3071 5.23342 20.3071 4.54397 19.8819 4.11873L19.7404 4.26015L19.8819 4.11873C19.4566 3.6935 18.7672 3.6935 18.3419 4.11873L12.0008 10.4599L5.65963 4.11873Z" fill="black"/>
</svg>
