<svg width="79" height="20" viewBox="0 0 79 20" fill="none" xmlns="http://www.w3.org/2000/svg">
<g clip-path="url(#clip0_8_787)">
<path d="M76.3817 3.33997C77.3033 3.33997 78.0503 2.59229 78.0503 1.66999C78.0503 0.747678 77.3033 0 76.3817 0C75.4602 0 74.7131 0.747678 74.7131 1.66999C74.7131 2.59229 75.4602 3.33997 76.3817 3.33997Z" fill="#A671EA"/>
<path d="M3.47573 3.34949V9.03509C3.47573 9.37929 3.90085 9.54023 4.12853 9.28049L8.37169 4.43785C8.97832 3.74627 9.85242 3.34949 10.7727 3.34949H13.3425L6.7413 10.823C6.62029 10.96 6.61711 11.164 6.73175 11.3058L13.6721 19.8055H10.9447C10.0833 19.8055 9.26809 19.4199 8.72197 18.7538L4.13808 13.1607C3.91677 12.8898 3.47733 13.0475 3.47733 13.3965V19.8055H1.60014C0.716482 19.8055 0 19.0885 0 18.2041V4.95095C0 4.06656 0.716482 3.34949 1.60014 3.34949H3.47733H3.47573Z" fill="black"/>
<path d="M26.7678 3.34949V4.68803C26.7678 5.53258 26.0832 6.21778 25.2393 6.21778H19.9533C19.7479 6.21778 19.5807 6.3851 19.5807 6.59066V9.3012C19.5807 9.50676 19.7479 9.67408 19.9533 9.67408H26.2981V10.9457C26.2981 11.7887 25.6151 12.4723 24.7728 12.4723H19.9533C19.7479 12.4723 19.5807 12.6396 19.5807 12.8451V16.566C19.5807 16.7715 19.7479 16.9388 19.9533 16.9388H26.7678V18.118C26.7678 19.0502 26.0131 19.8055 25.0817 19.8055H18.1684C17.1319 19.8055 16.2913 18.9642 16.2913 17.9268V5.22822C16.2913 4.19085 17.1319 3.34949 18.1684 3.34949H26.7678Z" fill="black"/>
<path d="M41.4158 3.34949V4.68803C41.4158 5.53258 40.7311 6.21778 39.8873 6.21778H34.6012C34.3958 6.21778 34.2287 6.3851 34.2287 6.59066V9.3012C34.2287 9.50676 34.3958 9.67408 34.6012 9.67408H40.9461V10.9457C40.9461 11.7887 40.263 12.4723 39.4208 12.4723H34.6012C34.3958 12.4723 34.2287 12.6396 34.2287 12.8451V16.566C34.2287 16.7715 34.3958 16.9388 34.6012 16.9388H41.4158V18.118C41.4158 19.0502 40.6611 19.8055 39.7296 19.8055H32.8164C31.7799 19.8055 30.9392 18.9642 30.9392 17.9268V5.22822C30.9392 4.19085 31.7799 3.34949 32.8164 3.34949H41.4158Z" fill="black"/>
<path d="M54.8619 3.34949V4.83463C54.8619 5.6505 54.2011 6.3118 53.3859 6.3118H48.9867C48.7813 6.3118 48.6142 6.47912 48.6142 6.68468V9.60716C48.6142 9.81272 48.7813 9.98003 48.9867 9.98003H54.6278V11.1369C54.6278 12.0564 53.8827 12.8021 52.964 12.8021H48.9867C48.7813 12.8021 48.6142 12.9694 48.6142 13.175V19.8071H47.0713C46.1065 19.8071 45.3247 19.0247 45.3247 18.0591V5.09756C45.3247 4.1319 46.1065 3.34949 47.0713 3.34949H54.8619Z" fill="black"/>
<path d="M60.7466 9.82388H59.0509C58.5956 9.82388 58.2278 9.45418 58.2278 9.00004V7.6599C58.2278 5.14855 60.2626 3.11206 62.7719 3.11206H64.1109C64.5663 3.11206 64.9341 3.48175 64.9341 3.9359V5.63297C64.9341 6.08872 64.5647 6.45681 64.1109 6.45681H62.7719C62.1095 6.45681 61.5714 6.99382 61.5714 7.65831V8.99844C61.5714 9.45418 61.202 9.82228 60.7482 9.82228L60.7466 9.82388Z" fill="black"/>
<path d="M74.1208 9.82387H72.4251C71.9697 9.82387 71.6019 9.45418 71.6019 9.00003V7.6599C71.6019 6.997 71.0654 6.4584 70.4014 6.4584H69.0624C68.6071 6.4584 68.2393 6.08871 68.2393 5.63456V3.93749C68.2393 3.48175 68.6086 3.11365 69.0624 3.11365H70.4014C72.9107 3.11365 74.9455 5.15014 74.9455 7.66149V9.00162C74.9455 9.45737 74.5761 9.82546 74.1224 9.82546L74.1208 9.82387Z" fill="#A671EA"/>
<path d="M70.4014 20H69.0624C68.6071 20 68.2393 19.6303 68.2393 19.1762V17.4791C68.2393 17.0234 68.6086 16.6553 69.0624 16.6553H70.4014C71.0638 16.6553 71.6019 16.1183 71.6019 15.4538V14.1136C71.6019 13.6579 71.9713 13.2898 72.4251 13.2898H74.1208C74.5761 13.2898 74.9439 13.6595 74.9439 14.1136V15.4538C74.9439 17.9651 72.9091 20.0016 70.3999 20.0016L70.4014 20Z" fill="black"/>
<path d="M64.1092 20H62.7702C60.2609 20 58.2261 17.9635 58.2261 15.4522V14.112C58.2261 13.6563 58.5955 13.2882 59.0492 13.2882H60.7449C61.2003 13.2882 61.5681 13.6579 61.5681 14.112V15.4522C61.5681 16.1151 62.1046 16.6537 62.7686 16.6537H64.1076C64.563 16.6537 64.9308 17.0234 64.9308 17.4775V19.1746C64.9308 19.6303 64.5614 19.9984 64.1076 19.9984L64.1092 20Z" fill="black"/>
</g>
<defs>
<clipPath id="clip0_8_787">
<rect width="78.0488" height="20" fill="white"/>
</clipPath>
</defs>
</svg>
