<svg width="11" height="21" viewBox="0 0 11 21" fill="none" xmlns="http://www.w3.org/2000/svg">
<path d="M9.99526 20.9999C9.86379 21.0007 9.73347 20.9755 9.61176 20.9257C9.49005 20.8759 9.37935 20.8026 9.28601 20.7099L0.295488 11.7099C0.201858 11.617 0.12754 11.5064 0.0768252 11.3845C0.02611 11.2627 0 11.132 0 10.9999C0 10.8679 0.02611 10.7372 0.0768252 10.6154C0.12754 10.4935 0.201858 10.3829 0.295488 10.2899L9.28601 1.28994C9.47411 1.10164 9.72924 0.99585 9.99526 0.99585C10.2613 0.99585 10.5164 1.10164 10.7045 1.28994C10.8926 1.47824 10.9983 1.73364 10.9983 1.99994C10.9983 2.26624 10.8926 2.52164 10.7045 2.70994L2.41325 10.9999L10.7045 19.2899C10.7981 19.3829 10.8725 19.4935 10.9232 19.6154C10.9739 19.7372 11 19.8679 11 19.9999C11 20.132 10.9739 20.2627 10.9232 20.3845C10.8725 20.5064 10.7981 20.617 10.7045 20.7099C10.6112 20.8026 10.5005 20.8759 10.3788 20.9257C10.2571 20.9755 10.1267 21.0007 9.99526 20.9999Z" fill="#303538"/>
</svg>
